<svg width="382" height="779" viewBox="0 0 382 779" fill="none" xmlns="http://www.w3.org/2000/svg">
<path d="M0 779H375V0H80C35.8172 0 0 35.8172 0 80V779Z" fill="#6070FF"/>
<rect x="274" y="50.3993" width="74.7012" height="17.2106" transform="rotate(-23.1765 274 50.3993)" fill="#7F8CFF"/>
<path d="M376.207 71.4102C372.738 65.3222 367.869 60.1275 361.993 56.2465C356.117 52.3656 349.4 49.9076 342.384 49.0715C335.369 48.2355 328.253 49.0449 321.613 51.4342C314.973 53.8235 308.995 57.7255 304.163 62.8244C299.332 67.9232 295.782 74.0755 293.803 80.7832C291.823 87.4909 291.468 94.5654 292.767 101.434C294.066 108.302 296.983 114.772 301.281 120.318C305.579 125.865 311.137 130.332 317.505 133.359L325.894 116.101C322.266 114.376 319.099 111.831 316.651 108.671C314.202 105.512 312.541 101.826 311.801 97.9131C311.06 94.0002 311.263 89.9698 312.39 86.1485C313.518 82.3271 315.54 78.8222 318.293 75.9173C321.046 73.0125 324.451 70.7895 328.234 69.4284C332.017 68.0672 336.071 67.6061 340.067 68.0824C344.064 68.5587 347.891 69.959 351.239 72.17C354.586 74.3809 357.36 77.3404 359.336 80.8087L376.207 71.4102Z" fill="white"/>
<circle cx="127.5" cy="65.4999" r="10.5" fill="#7F8CFF"/>
<rect width="76.175" height="13.6273" transform="matrix(0.801365 0.598176 0.598176 -0.801365 222.804 674.889)" fill="#7F8CFF"/>
<circle cx="239.228" cy="708.219" r="15.5552" transform="rotate(48.9435 239.228 708.219)" fill="white"/>
</svg>
